<svg width="46" height="46" viewBox="0 0 46 46" fill="none" xmlns="http://www.w3.org/2000/svg">
<path d="M38 0H8C3.58172 0 0 3.58172 0 8V38C0 42.4183 3.58172 46 8 46H38C42.4183 46 46 42.4183 46 38V8C46 3.58172 42.4183 0 38 0Z" fill="#2A69AF"/>
<path d="M30.2677 20.0925C27.5283 22.4781 27.7003 25.2726 30.7675 27.3012C30.1606 29.0376 29.3427 30.6897 27.7458 31.7218C27.2459 32.0464 26.3079 32.0626 25.7302 31.829C24.3345 31.261 23.0428 31.235 21.6893 31.8679C20.9038 32.2379 20.06 32.2087 19.4335 31.5888C16.7656 28.963 15.4868 25.8147 16.1911 22.0561C16.6714 19.505 19.4011 17.4375 22.3352 18.8299C23.2505 19.2616 24.0294 19.0604 24.8863 18.726C27.0739 17.8724 29.0278 18.3755 30.2677 20.0925Z" fill="white"/>
</svg>
