<svg width="312" height="204" viewBox="0 0 312 204" fill="none" xmlns="http://www.w3.org/2000/svg">
<mask id="mask0" style="mask-type:alpha" maskUnits="userSpaceOnUse" x="0" y="0" width="312" height="204">
<path d="M292 0H20C8.9543 0 0 8.9543 0 20V184C0 195.046 8.9543 204 20 204H292C303.046 204 312 195.046 312 184V20C312 8.9543 303.046 0 292 0Z" fill="#1D1E2C"/>
</mask>
<g mask="url(#mask0)">
<g filter="url(#filter0_d)">
<path d="M292 0H20C8.9543 0 0 8.9543 0 20V184C0 195.046 8.9543 204 20 204H292C303.046 204 312 195.046 312 184V20C312 8.9543 303.046 0 292 0Z" fill="#1D1E2C"/>
</g>
<path opacity="0.12" d="M115 176.394C115 165.708 112.698 156.039 107.583 149.932C103.746 144.843 102.723 142.299 96.84 138.482C90.958 134.411 90.19 133.393 83.029 130.34C79.448 128.559 76.89 127.541 75.612 127.032L67.683 123.979L60.5212 121.18H60.2654V91.156C66.66 93.446 71.008 98.534 73.565 106.422L112.442 84.794C102.212 62.6578 84.819 50.19 60.2654 47.3911V25H42.3615V46.8822C26.5038 48.1544 13.4596 53.7522 3.2288 63.4211C-7.0019 72.836 -12.1173 85.558 -12.1173 101.588C-12.1173 117.872 -7.0019 130.086 3.9962 138.991C14.9942 147.388 23.9462 151.968 40.0596 157.82L42.3615 158.583V188.862C32.3865 186.318 25.4808 179.448 21.6442 168.507L-18 190.643C-9.5596 215.07 12.4365 230.082 42.3615 232.118V254H60.2654V231.863C93.771 228.047 115 208.2 115 176.394ZM32.3865 101.842C32.3865 95.736 35.7115 91.919 42.3615 90.138V113.292C35.7115 109.984 32.3865 106.168 32.3865 101.842ZM60.2654 165.708C67.171 168.761 70.496 172.578 70.496 177.158C70.496 183.01 67.171 186.827 60.2654 188.608V165.708Z" fill="white"/>
<g opacity="0.8">
<path opacity="0.8" d="M343.001 4.34867V3.74067C333.926 11.6604 327.238 29.4607 325.87 49.3892C325.505 54.7856 323.483 58.2666 320.017 59.4675C317.464 60.3491 314.256 59.9843 310.73 58.3882C307.218 56.7921 303.722 54.1471 300.621 50.7269C299.435 49.4196 297.93 47.9299 296.319 46.349C288.855 39.0069 278.656 28.9439 283.337 20.0209C285.906 15.1414 290.756 14.2293 295.878 13.2717C301.077 12.2988 306.458 11.2955 309.042 5.74717C309.818 4.07507 310.365 2.14447 310.684 -0.0444336H309.757C309.453 2.00767 308.936 3.80147 308.206 5.36717C305.82 10.4899 300.895 11.4172 295.696 12.39C290.573 13.3477 285.283 14.3357 282.517 19.6105C278.868 26.5725 283.474 33.9602 289.22 40.375C293.279 45.4674 298.356 50.1341 301.32 53.5695C311.505 65.3959 326.888 69.0441 328.804 53.3415C330.704 37.8821 335.994 23.7908 342.986 14.8982L343.001 4.34867Z" fill="#FFEEA7"/>
<path opacity="0.8" d="M177.6 31.7262C177.341 33.5047 176.794 35.3593 176.216 37.3202C175.228 40.6796 174.225 44.115 174.559 47.444C174.271 50.4082 174.499 53.3268 175.973 56.0022C177.736 59.1944 182.008 60.2433 185.155 58.9208C195.02 54.7709 195.537 39.9196 206.786 37.8674H206.801C211.498 36.5905 216.864 39.2355 220.375 42.1389C226.319 47.0792 231.214 56.0782 232.217 64.2107C232.202 64.5756 232.202 64.9556 232.186 65.3204C232.095 68.5731 232.004 72.1761 232.247 75.7481C232.278 81.8291 232.87 88.1521 235.865 92.9861C240.577 100.617 252.677 98.4891 250.534 91.3141C250.792 90.9801 251.02 90.6151 251.172 90.2351C251.796 88.7451 251.932 86.2061 248.968 82.6801C245.761 78.8491 244.317 75.2771 244.393 71.4461C244.469 68.0721 245.73 64.4236 248.467 59.62C250.899 55.3638 254.486 51.2747 258.302 46.9576C264.169 40.2844 270.25 33.3679 271.967 25.5546C273.016 20.7663 272.864 15.2788 271.496 9.22878C270.827 6.26458 269.87 3.14838 268.623 -0.0742188H267.65C268.942 3.22438 269.93 6.40138 270.614 9.42638C271.952 15.3396 272.104 20.7055 271.086 25.357C269.414 32.9423 263.424 39.7675 257.618 46.3648C253.787 50.7275 250.154 54.8469 247.676 59.1792C244.849 64.1195 243.557 67.9046 243.481 71.4311C243.39 75.5051 244.91 79.2601 248.269 83.2731C250.382 85.7961 251.081 88.0761 250.321 89.8851C249.637 91.4961 247.828 92.5761 245.457 92.7581C242.766 92.9711 238.829 91.8921 236.534 88.1981C232.627 81.8891 232.886 72.7081 233.083 65.3356C233.098 64.5756 233.129 63.8307 233.144 63.1011C233.342 54.2845 228.097 43.1422 220.953 37.2138C217.365 34.2344 211.817 31.5286 206.968 32.8511H206.953C202.104 34.2192 198.835 39.2507 195.689 44.1302C193.409 47.6417 191.265 50.9555 188.62 52.8708C186.097 54.7101 183.467 55.4398 181.233 54.9381C179.348 54.5125 177.812 53.266 176.672 51.2139C174.316 46.9728 175.73 42.1845 177.083 37.5634C177.676 35.5721 178.223 33.6872 178.497 31.8478C179.272 26.5579 178.679 20.3255 176.84 14.3059C175.091 8.62068 172.31 3.58918 168.92 -0.0590171H167.658C171.215 3.52838 174.149 8.69668 175.958 14.5795C177.752 20.3863 178.344 26.6339 177.6 31.7262Z" fill="#FFEEA7"/>
<path opacity="0.8" d="M329.426 70.1731C325.094 78.4881 321.005 86.3622 316.126 89.0532C313.116 90.7102 310.532 91.0291 308.221 90.0411C302.004 87.3351 298.979 75.3421 296.304 64.7617C294.297 56.7812 292.549 49.8952 289.722 47.1438C286.332 43.8452 282.714 42.5531 278.974 43.2979C268.273 45.4109 259.7 63.348 257.328 68.8051C253.558 77.4541 254.182 83.6411 259.532 90.9231C260.201 91.8351 260.992 92.7921 261.828 93.8111C265.491 98.2801 270.036 103.859 267.938 109.62C266.297 114.134 267.315 118.801 270.887 123.103C273.882 126.69 278.579 129.867 283.778 131.798C285.663 132.497 287.624 133.105 289.524 133.698C296.577 135.887 303.235 137.97 307.476 144.567C308.844 146.695 310.197 149.234 311.398 152H312.386C311.125 149.036 309.696 146.33 308.236 144.065C303.813 137.194 296.684 134.975 289.782 132.816C287.897 132.224 285.952 131.631 284.082 130.932C279.02 129.062 274.46 125.991 271.572 122.51C269.231 119.698 266.844 115.229 268.775 109.924C271.055 103.676 266.327 97.8852 262.512 93.2332C261.691 92.2302 260.916 91.2721 260.247 90.3751C255.124 83.4131 254.531 77.4701 258.149 69.1701C259.502 66.069 262.36 60.0494 266.312 54.5467C270.675 48.4967 274.992 45.0157 279.126 44.1948C282.562 43.526 285.906 44.7269 289.068 47.7975C291.713 50.3665 293.507 57.4805 295.407 64.9898C298.128 75.7821 301.213 88.0041 307.841 90.8771C310.395 91.9871 313.313 91.6372 316.551 89.8582C321.674 87.0312 325.824 79.0511 330.217 70.5991C334.139 63.0592 338.167 55.3371 342.986 51.1417V49.956C337.772 54.1363 333.546 62.2384 329.426 70.1731Z" fill="#FFEEA7"/>
<path opacity="0.8" d="M334.792 87.3769C332.345 92.3169 330.019 96.9839 326.949 99.2179C322.145 102.715 316.642 104.083 311.444 103.064C306.138 102.031 301.426 98.5799 298.204 93.3659C296.911 91.2679 295.665 87.1789 294.342 82.8319C291.697 74.1369 288.703 64.2865 283.504 62.9792C281.802 62.5536 280.266 62.7512 278.944 63.572C275.402 65.761 274.049 71.9479 272.97 76.9029C272.499 79.0469 272.103 80.9009 271.602 82.0409C268.911 88.2129 269.367 92.6359 273.183 97.8349C273.76 98.6099 274.399 99.3699 275.083 100.191C276.861 102.304 278.716 104.478 279.248 106.986C279.506 108.217 279.278 109.388 279.035 110.634C278.746 112.124 278.442 113.675 279.065 115.255C281.498 121.549 290.269 123.859 297.322 125.714C299.283 126.231 301.137 126.717 302.627 127.234C312.325 130.608 325.596 135.214 331.934 145.065C333.166 146.98 334.367 149.351 335.37 151.935H336.343C335.294 149.154 334.017 146.6 332.695 144.563C326.189 134.454 312.736 129.772 302.916 126.367C301.381 125.835 299.511 125.349 297.535 124.817C290.679 123.008 282.151 120.773 279.886 114.906C279.369 113.553 279.628 112.215 279.902 110.786C280.145 109.51 280.403 108.172 280.114 106.773C279.537 104.037 277.621 101.772 275.767 99.5829C275.098 98.7929 274.46 98.0329 273.912 97.2879C270.31 92.3929 269.899 88.2279 272.438 82.3909C272.97 81.1749 273.38 79.2749 273.867 77.0859C274.916 72.2819 276.223 66.3234 279.43 64.3321C280.555 63.6328 281.802 63.4808 283.291 63.8456C288.004 65.0313 291.044 75.0339 293.476 83.0899C294.874 87.6809 296.075 91.6479 297.428 93.8369C300.803 99.2639 305.713 102.867 311.276 103.946C316.734 105.01 322.479 103.596 327.496 99.9479C330.749 97.5769 333.12 92.8189 335.613 87.7719C337.817 83.3179 340.082 78.7729 343.016 75.8549V74.5779C339.657 77.5719 337.194 82.5279 334.792 87.3769Z" fill="#FFEEA7"/>
<path opacity="0.8" d="M336.419 103.4L335.963 103.78C330.172 108.507 323.62 113.858 315.746 111.38C313.8 110.772 311.9 109.754 310.076 108.781C306.048 106.638 301.883 104.418 296.851 106.273C293.796 107.398 292.99 108.994 292.838 110.149C292.61 112.003 293.917 114.01 296.517 115.773C300.454 118.449 305.166 119.65 309.726 120.805C311.93 121.367 314.211 121.945 316.324 122.675C324.836 125.639 336.1 129.545 343.016 137.131V135.808C335.918 128.542 324.958 124.727 316.628 121.823C314.469 121.078 312.174 120.486 309.954 119.923C305.47 118.783 300.849 117.597 297.033 115.013C294.769 113.463 293.568 111.73 293.75 110.255C293.902 108.978 295.088 107.899 297.17 107.124C301.822 105.406 305.622 107.443 309.65 109.587C311.52 110.575 313.451 111.608 315.472 112.247H315.487C323.833 114.861 330.582 109.343 336.556 104.479L337.012 104.099C337.164 103.977 337.377 103.795 337.635 103.582C339.596 101.956 341.39 100.542 343.016 99.3561V98.2161C340.934 99.7061 338.851 101.378 337.042 102.883C336.784 103.111 336.571 103.278 336.419 103.4Z" fill="#FFEEA7"/>
<path opacity="0.8" d="M193.458 63.1907C191.773 67.3881 191.193 71.1971 191.806 73.9161C192.679 77.7871 195.657 79.9171 198.546 81.9651C199.576 82.7101 200.661 83.4841 201.608 84.3181C204.082 86.5011 205.369 89.1181 206.737 91.8931C208.164 94.7841 209.627 97.7701 212.541 100.193L212.607 100.234C214.172 101.183 215.628 101.825 216.933 102.16C222.274 104.488 228.431 104.589 230.481 99.3011C233.057 92.6371 223.898 85.1681 221.53 79.4211C218.306 71.6201 222.778 63.9137 220.504 55.9143C218.879 50.1912 212.579 46.4817 210.002 46.8741C209.692 46.9186 209.372 46.9958 209.064 47.0833C208.871 47.091 208.688 47.1089 208.496 47.138C205.855 47.5329 203.01 49.3128 200.255 52.2939C197.542 55.2088 195.074 59.179 193.458 63.1907ZM207.56 91.4731C206.215 88.7401 204.823 85.9231 202.215 83.6161C201.234 82.7521 200.138 81.9671 199.076 81.2131C196.208 79.1641 193.496 77.2161 192.701 73.7091C191.528 68.5271 195.292 58.9874 200.914 52.9025C203.524 50.0777 206.19 48.4018 208.618 48.0368C211.216 47.6436 213.244 49.973 214.656 54.9193C215.63 58.3445 216.062 61.9311 216.469 65.4111C217.029 70.0471 217.594 74.8331 219.451 79.3421C220.129 80.9821 221.053 82.5811 221.952 84.1161C224.271 88.0801 226.453 91.8341 224.677 96.4221C224.12 97.8531 223.445 99.0091 222.692 99.8241C220.526 102.169 217.38 102.057 213.083 99.4731C210.356 97.1601 208.929 94.2691 207.56 91.4731Z" fill="#FFEEA7"/>
<path opacity="0.8" d="M301.837 24.7053C301.594 25.1005 301.411 25.5413 301.274 26.0126C300.423 28.992 301.305 32.5034 303.676 35.6348C306.443 39.283 310.638 41.6544 314.362 41.6544C314.758 41.6544 315.168 41.624 315.548 41.5784C317.19 41.3504 318.497 40.4991 319.455 39.0398C321.355 36.1212 321.4 31.1505 320.488 27.9431C319.956 26.0886 318.391 24.4013 316.08 23.2004C313.982 22.1059 311.398 21.4827 308.981 21.4827C305.652 21.4979 303.038 22.6683 301.837 24.7053ZM319.607 28.1863C320.352 30.7553 320.549 35.6652 318.679 38.5382C317.874 39.7694 316.779 40.4839 315.411 40.6663C315.062 40.7119 314.712 40.7423 314.347 40.7423C310.897 40.7423 306.975 38.523 304.391 35.0875C302.202 32.1842 301.381 28.9616 302.141 26.2558C302.247 25.8606 302.414 25.4957 302.612 25.1613C303.661 23.398 305.971 22.3947 308.981 22.3947C313.298 22.4099 318.588 24.6141 319.607 28.1863Z" fill="#FFEEA7"/>
<path opacity="0.8" d="M250.918 23.4082C251.05 22.9635 251.112 22.4905 251.123 21.9999C251.174 18.9017 249.413 15.7381 246.312 13.3272C242.696 10.5193 238.029 9.3146 234.432 10.2785C234.05 10.3808 233.662 10.5164 233.307 10.6588C231.78 11.304 230.737 12.4645 230.19 14.122C229.11 17.4329 230.353 22.2461 232.064 25.1081C233.058 26.7617 235.007 27.9863 237.549 28.5483C239.859 29.0625 242.516 28.9957 244.851 28.3701C248.062 27.4938 250.285 25.6865 250.918 23.4082ZM232.852 24.645C231.468 22.3564 230.006 17.6649 231.069 14.4059C231.528 13.008 232.4 12.0347 233.675 11.5044C234.001 11.3698 234.33 11.25 234.683 11.1556C238.016 10.2625 242.379 11.3911 245.764 14.0407C248.63 16.2786 250.257 19.1789 250.223 21.9892C250.222 22.3985 250.155 22.7942 250.051 23.1684C249.494 25.1431 247.522 26.7102 244.615 27.4892C240.441 28.5918 234.761 27.8319 232.852 24.645Z" fill="#FFEEA7"/>
<path opacity="0.8" d="M237.484 47.0917C237.857 47.737 238.613 48.4762 240.073 48.3218C241.439 48.1786 243.456 47.2006 244.388 46.2321C245.734 44.8381 245.417 42.0527 244.336 40.1812C243.566 38.8474 242.484 38.0665 241.366 38.0669C241.149 38.0633 240.922 38.0935 240.698 38.1515C239.519 38.4449 238.426 39.6067 237.694 41.3199C236.949 43.0841 236.596 45.5536 237.484 47.0917ZM240.88 38.864C241.044 38.8263 241.204 38.8055 241.36 38.8018C242.212 38.8118 243.051 39.4459 243.691 40.5538C244.883 42.6189 244.699 44.8335 243.851 45.7246C243.055 46.5569 241.178 47.4542 239.99 47.5812C239.138 47.6712 238.514 47.3859 238.129 46.7191C237.477 45.5897 237.585 43.491 238.384 41.5957C239.014 40.1278 239.943 39.1039 240.88 38.864Z" fill="#FFEEA7"/>
<path opacity="0.8" d="M198.033 31.1539C200.526 31.2147 203.004 30.1659 205.649 27.9617C209.783 24.4959 212.17 19.4492 214.48 14.5849C214.617 14.2808 214.754 13.992 214.906 13.7032C219.953 3.07777 224.726 -5.55634 231.627 -13.1265C231.931 -13.461 232.265 -13.841 232.645 -14.2514C233.193 -14.8594 233.816 -15.5587 234.5 -16.3035H233.269C232.797 -15.7867 232.372 -15.3003 231.977 -14.8594C231.612 -14.449 231.262 -14.069 230.973 -13.7346C223.996 -6.07324 219.193 2.62176 214.1 13.3232C213.963 13.612 213.827 13.916 213.675 14.22C211.41 19.0084 209.069 23.9487 205.086 27.2929C202.624 29.345 200.328 30.3331 198.078 30.2723C195.129 30.2115 192.636 29.4362 190.873 28.0377C188.958 26.5176 188 24.3743 188.061 21.6533C188.152 16.8346 190.296 12.4719 192.378 8.24606C194.445 4.03546 196.574 -0.296834 196.802 -5.20674C196.984 -9.35664 196.437 -13.1873 195.251 -16.3035H194.278C195.494 -13.2633 196.072 -9.43264 195.889 -5.25234C195.677 -0.540033 193.579 3.71627 191.557 7.83567C189.444 12.1375 187.255 16.5914 187.149 21.6229C187.012 27.3385 191.192 31.0019 198.033 31.1539Z" fill="#FFEEA7"/>
</g>
<path fill-rule="evenodd" clip-rule="evenodd" d="M266.369 180.737H277.018V161.602H266.369V180.737Z" fill="#FF5F00"/>
<path fill-rule="evenodd" clip-rule="evenodd" d="M267.043 171.169C267.043 167.287 268.861 163.83 271.692 161.602C269.622 159.972 267.01 159 264.17 159C257.449 159 252 164.449 252 171.169C252 177.89 257.449 183.339 264.17 183.339C267.01 183.339 269.622 182.367 271.692 180.737C268.861 178.509 267.043 175.051 267.043 171.169Z" fill="#EB001B"/>
<path fill-rule="evenodd" clip-rule="evenodd" d="M291.383 171.169C291.383 177.89 285.934 183.339 279.213 183.339C276.374 183.339 273.761 182.367 271.691 180.737C274.522 178.509 276.34 175.051 276.34 171.169C276.34 167.287 274.522 163.83 271.691 161.602C273.761 159.972 276.374 159 279.213 159C285.934 159 291.383 164.449 291.383 171.169Z" fill="#F79E1B"/>
<path d="M118.825 169.647H119.342L120.568 166.096H120.161L119.103 169.23L118.045 166.096H117.618L118.825 169.647Z" fill="white"/>
<path d="M120.573 169.647H120.98L121.322 168.624H122.787L123.135 169.647H123.562L122.36 166.096H121.794L120.573 169.647ZM122.057 166.454L122.673 168.281H121.442L122.057 166.454Z" fill="white"/>
<path d="M124.187 169.647H126.243V169.294H124.619V166.096H124.187V169.647Z" fill="white"/>
<path d="M126.87 169.647H127.302V166.096H126.87V169.647Z" fill="white"/>
<path d="M128.654 169.294V166.444H129.136C130.114 166.444 130.512 167.02 130.512 167.839V167.879C130.512 168.748 130.055 169.294 129.141 169.294H128.654ZM128.222 169.647H129.151C130.392 169.647 130.959 168.867 130.959 167.884V167.839C130.959 166.851 130.383 166.096 129.161 166.096H128.222V169.647Z" fill="white"/>
<path d="M185.471 173.209C186.266 173.209 186.832 172.806 186.956 171.987H186.554C186.464 172.563 186.062 172.856 185.481 172.856C184.716 172.856 184.259 172.31 184.259 171.406V171.366C184.259 170.472 184.751 169.901 185.486 169.901C186.092 169.901 186.405 170.179 186.494 170.721H186.921C186.847 169.951 186.221 169.558 185.481 169.558C184.518 169.558 183.812 170.318 183.812 171.371V171.411C183.812 172.503 184.443 173.209 185.471 173.209Z" fill="white"/>
<path d="M188.474 173.164H188.991L190.218 169.613H189.81L188.752 172.747L187.695 169.613H187.268L188.474 173.164Z" fill="white"/>
<path d="M191.724 173.164H192.24L193.467 169.613H193.06L192.002 172.747L190.944 169.613H190.517L191.724 173.164Z" fill="white"/>
<path d="M20 140.169H21.6456C22.6061 140.169 23.2241 139.732 23.2241 138.826V138.799C23.2241 138.174 22.9621 137.818 22.2636 137.65C22.8143 137.462 22.989 137.073 22.989 136.636V136.609C22.989 135.662 22.3374 135.366 21.4441 135.366H20V140.169ZM20.5709 139.712V137.919H21.5516C22.324 137.919 22.6531 138.201 22.6531 138.792V138.819C22.6531 139.403 22.3307 139.712 21.6322 139.712H20.5709ZM20.5709 137.462V135.823H21.4307C22.1024 135.823 22.4181 136.045 22.4181 136.589V136.616C22.4181 137.207 22.1494 137.462 21.4441 137.462H20.5709Z" fill="white"/>
<path d="M23.75 140.169H24.3008L24.7643 138.785H26.7457L27.2159 140.169H27.7935L26.1681 135.366H25.4024L23.75 140.169ZM25.7583 135.85L26.5912 138.322H24.9255L25.7583 135.85Z" fill="white"/>
<path d="M28.6387 140.169H31.4195V139.692H29.2231V135.366H28.6387V140.169Z" fill="white"/>
<path d="M31.8701 140.169H32.4209L32.8844 138.785H34.8658L35.336 140.169H35.9137L34.2882 135.366H33.5225L31.8701 140.169ZM33.8785 135.85L34.7113 138.322H33.0456L33.8785 135.85Z" fill="white"/>
<path d="M36.7588 140.169H37.3163V136.052L39.7411 140.169H40.4128V135.366H39.8553V139.336L37.5178 135.366H36.7588V140.169Z" fill="white"/>
<path d="M43.6282 140.229C44.7029 140.229 45.4687 139.685 45.6366 138.577H45.0925C44.9716 139.356 44.4275 139.753 43.6417 139.753C42.6073 139.753 41.9893 139.014 41.9893 137.791V137.738C41.9893 136.528 42.6543 135.756 43.6484 135.756C44.4678 135.756 44.891 136.132 45.0119 136.864H45.5896C45.4888 135.823 44.6425 135.293 43.6417 135.293C42.3386 135.293 41.3848 136.32 41.3848 137.744V137.798C41.3848 139.276 42.2379 140.229 43.6282 140.229Z" fill="white"/>
<path d="M46.5264 140.169H49.4483V139.692H47.1108V137.952H48.8975V137.476H47.1108V135.843H49.3273V135.366H46.5264V140.169Z" fill="white"/>
<path d="M44.9511 33.3047C44.6235 32.6225 44.2904 31.942 43.9574 31.2616C43.8548 31.051 43.718 30.8638 43.547 30.7036C43.3328 30.5056 43.349 30.3274 43.6028 30.1744C44.0456 29.908 44.3588 29.53 44.5478 29.053C44.8413 28.3168 44.8467 27.5626 44.6307 26.8102C44.3966 25.9948 43.844 25.5016 43.0286 25.2892C42.71 25.2064 42.386 25.174 42.0602 25.1704C40.9928 25.1614 39.9254 25.165 38.858 25.1686C38.5556 25.1686 38.4512 25.2802 38.4512 25.5808C38.4512 26.8912 38.4512 28.2016 38.4512 29.512C38.4512 30.8224 38.4512 32.1328 38.4512 33.4433C38.4512 33.7511 38.5556 33.8591 38.8688 33.8645C39.1946 33.8681 39.5204 33.8627 39.848 33.8663C40.235 33.8717 40.4168 33.8267 40.4042 33.3245C40.3862 32.5451 40.3988 31.7656 40.4006 30.9862C40.4006 30.7792 40.4744 30.6694 40.631 30.6316C41.1278 30.5092 41.5598 30.7252 41.7758 31.1896C42.1448 31.987 42.5246 32.7791 42.8918 33.5783C42.9854 33.7817 43.124 33.8699 43.3436 33.8681C43.7576 33.8627 44.1734 33.8681 44.5875 33.8663C44.9727 33.8627 45.1149 33.6485 44.9511 33.3047ZM42.8864 28.1134C42.8324 28.6048 42.5462 28.846 42.0008 28.8712C41.5544 28.8928 41.1062 28.8802 40.6598 28.8766C40.4906 28.8748 40.3988 28.7794 40.3934 28.603C40.3862 28.3708 40.3916 28.1386 40.3916 27.9064C40.3916 27.6742 40.3898 27.442 40.3916 27.2098C40.3934 27.0586 40.4672 26.9416 40.622 26.9362C41.1134 26.9218 41.6066 26.8912 42.0944 26.9506C42.7442 27.0316 42.962 27.4348 42.8864 28.1134Z" fill="white"/>
<path d="M35.4479 30.4347C35.4479 31.4248 35.4479 32.4148 35.4479 33.4048C35.4479 33.7468 35.3327 33.862 34.9907 33.8638C34.6306 33.8656 34.2724 33.8656 33.9124 33.8638C33.529 33.862 33.4174 33.7522 33.4174 33.3688C33.4156 31.4284 33.4174 29.4861 33.4174 27.5457C33.4174 27.4899 33.4174 27.4359 33.4174 27.3801C33.4138 27.1389 33.3184 27.0399 33.0736 27.0381C32.5822 27.0345 32.089 27.0381 31.5976 27.0363C31.306 27.0363 31.1926 26.9265 31.1908 26.6403C31.189 26.2857 31.189 25.9329 31.1908 25.5783C31.1926 25.2993 31.315 25.1679 31.5958 25.1679C33.4876 25.1661 35.3777 25.1661 37.2695 25.1679C37.5683 25.1679 37.6799 25.2867 37.6799 25.5819C37.6817 25.9365 37.6817 26.2893 37.6799 26.6439C37.6781 26.9319 37.5755 27.0363 37.2929 27.0363C36.8069 27.0381 36.3191 27.0363 35.8331 27.0363C35.5523 27.0363 35.4533 27.1353 35.4533 27.4143C35.4479 28.4205 35.4479 29.4285 35.4479 30.4347Z" fill="white"/>
<path d="M31.7498 33.7957C31.5608 33.7957 31.3736 33.7957 31.1864 33.7957C30.9866 33.7957 30.8552 33.7075 30.785 33.5149C30.6338 33.0937 30.4682 32.6779 30.317 32.2549C30.254 32.0785 30.1442 32.0065 29.957 32.0065C29.0444 32.0119 28.1318 32.0083 27.2192 32.0083C26.9924 32.0083 26.9276 32.0551 26.8484 32.2639C26.6954 32.6725 26.5441 33.0829 26.3911 33.4915C26.3047 33.7219 26.2129 33.7921 25.9735 33.7939C25.5919 33.7975 25.2103 33.7993 24.8287 33.7939C24.4867 33.7903 24.3535 33.5815 24.4813 33.2629C24.6289 32.8939 24.7819 32.5267 24.9259 32.1541C24.9709 32.0407 25.0339 31.9957 25.1581 31.9921C26.3191 31.9489 27.2534 31.4539 27.9536 30.5341C28.1048 30.3343 28.2632 30.2407 28.5098 30.2623C28.697 30.2785 28.886 30.2659 29.0732 30.2659C29.4062 30.2641 29.5196 30.1093 29.4062 29.8015C29.1866 29.2039 28.9652 28.6099 28.742 28.014C28.679 27.843 28.6232 27.6702 28.58 27.492C28.436 26.9016 28.166 26.3724 27.7466 25.9296C27.5792 25.7514 27.5738 25.5804 27.662 25.3716C27.7484 25.1664 27.8978 25.0944 28.1066 25.098C28.4 25.1016 28.6934 25.098 28.985 25.0998C29.291 25.1016 29.3684 25.152 29.4836 25.4364C30.1442 27.0654 30.803 28.6945 31.4618 30.3235C31.856 31.2973 32.2502 32.2711 32.6462 33.2431C32.7866 33.5887 32.6534 33.7921 32.2772 33.7957C32.1026 33.7975 31.9262 33.7957 31.7498 33.7957Z" fill="white"/>
<path d="M47.9247 29.5197C47.9247 30.8139 47.9247 32.1081 47.9247 33.4023C47.9247 33.7479 47.8149 33.8613 47.4693 33.8631C47.0985 33.8649 46.7277 33.8649 46.3587 33.8631C46.0473 33.8613 45.9213 33.7371 45.9213 33.4311C45.9195 30.8157 45.9195 28.2003 45.9213 25.5848C45.9213 25.2986 46.0491 25.1708 46.3389 25.169C46.7205 25.1654 47.1021 25.1654 47.4837 25.169C47.8095 25.1708 47.9247 25.286 47.9247 25.6082C47.9247 26.9096 47.9247 28.2147 47.9247 29.5197Z" fill="white"/>
<path d="M52.6658 33.9948C52.1906 33.9174 51.7208 33.8148 51.287 33.597C49.8524 32.877 49.0082 31.7141 48.7742 30.1337C48.4448 27.8981 49.9208 25.5743 52.4768 25.1765C54.1526 24.9155 55.571 25.4699 56.6493 26.8109C56.6835 26.8541 56.7141 26.9009 56.7447 26.9459C56.8077 27.0377 56.7789 27.1061 56.6961 27.1709C56.6169 27.2321 56.5557 27.2861 56.4531 27.1997C56.3073 27.0773 56.1849 26.9369 56.0589 26.7965C55.3028 25.9613 54.3344 25.5275 53.2364 25.5257C51.7316 25.5221 50.522 26.1593 49.7264 27.4751C49.3394 28.1141 49.091 28.8071 49.1252 29.5649C49.2296 31.8383 50.6876 33.2208 52.52 33.5304C54.0338 33.786 55.3208 33.282 56.3001 32.0688C56.3271 32.0346 56.3559 32.0004 56.3865 31.9698C56.4819 31.8761 56.5917 31.8563 56.6979 31.9428C56.8077 32.0328 56.7771 32.1354 56.7051 32.2362C56.3595 32.715 55.9184 33.0858 55.4144 33.3864C54.9014 33.6924 54.347 33.8904 53.7602 33.993C53.3966 33.9948 53.0312 33.9948 52.6658 33.9948Z" fill="white"/>
<path d="M49.8444 29.2526C49.8516 31.0113 50.7624 32.3091 52.1646 32.7267C53.3472 33.0777 54.7638 32.8599 55.6548 31.7457C55.6998 31.6899 55.7448 31.6341 55.7952 31.5819C55.9266 31.4415 55.9896 31.4451 56.1246 31.5747C56.211 31.6593 56.2002 31.7259 56.1318 31.8159C55.527 32.6169 54.7314 33.1155 53.7396 33.2631C52.683 33.4197 51.7146 33.1677 50.8668 32.5161C50.0334 31.8771 49.5762 31.0203 49.4664 29.9762C49.3692 29.0564 49.5528 28.2014 50.073 27.4346C50.7174 26.4824 51.6408 25.9802 52.7712 25.8506C53.9646 25.7138 54.9834 26.0864 55.824 26.9432C55.9518 27.0728 56.0562 27.224 56.1732 27.3644C56.2416 27.4454 56.2092 27.5048 56.139 27.5606C56.0706 27.6164 56.0166 27.7172 55.9032 27.6272C55.8186 27.5606 55.7556 27.4796 55.6854 27.4004C55.1958 26.8568 54.6126 26.4716 53.8854 26.3186C52.746 26.0792 51.738 26.3546 50.8974 27.1376C50.2206 27.7676 49.8732 28.5776 49.8444 29.2526Z" fill="white"/>
<path d="M53.0546 32.6088C51.6164 32.6088 50.2988 31.3668 50.162 29.808C50.0288 28.2924 51.0602 26.9279 52.475 26.6003C53.636 26.3303 54.8348 26.7497 55.499 27.6696C55.5152 27.693 55.535 27.7128 55.5458 27.738C55.5728 27.8046 55.6844 27.8802 55.5602 27.9432C55.4612 27.9936 55.355 28.1142 55.2308 27.954C54.8168 27.4176 54.2624 27.1223 53.6018 26.9873C52.1024 26.6831 50.7794 27.8622 50.5886 29.1276C50.369 30.591 51.314 31.9194 52.772 32.1462C53.7242 32.2938 54.5234 31.9698 55.1534 31.2408C55.3172 31.0518 55.3964 31.0302 55.5314 31.149C55.625 31.2318 55.6034 31.3056 55.5458 31.3938C55.2632 31.824 54.8708 32.121 54.41 32.3298C54.0122 32.5098 53.5964 32.6142 53.0546 32.6088Z" fill="white"/>
<path d="M53.1296 27.2405C53.8856 27.2405 54.4652 27.5285 54.926 28.0667C54.9962 28.1495 55.0862 28.2395 54.9512 28.3457C54.8414 28.4339 54.755 28.4699 54.6362 28.3295C53.9432 27.5087 52.7696 27.5267 52.136 27.9515C51.4574 28.4069 51.146 29.1737 51.3188 30.0071C51.47 30.7307 52.0964 31.3355 52.8542 31.4525C53.558 31.5605 54.1484 31.3121 54.629 30.8009C54.7244 30.7001 54.7964 30.6317 54.9242 30.7559C55.0412 30.8711 55.052 30.9341 54.9206 31.0781C54.2654 31.7999 53.4572 32.0645 52.523 31.7837C51.5798 31.4993 51.011 30.8387 50.876 29.8595C50.7014 28.5959 51.5636 27.4709 52.8254 27.2639C52.9406 27.2441 53.0576 27.2441 53.1296 27.2405Z" fill="white"/>
<path d="M57.3134 33.9942C57.3098 33.9456 57.3044 33.8952 57.3044 33.8448C57.3044 30.9755 57.3044 28.1045 57.3008 25.2334C57.3008 25.075 57.3476 25.0192 57.5078 25.021C57.668 25.0228 57.6842 25.1074 57.6878 25.2316C57.7544 27.9245 57.7184 30.6173 57.7112 33.3101C57.7112 33.4757 57.6896 33.6413 57.6896 33.8069C57.6896 33.9132 57.6482 33.9726 57.5456 33.9924C57.4664 33.9942 57.3908 33.9942 57.3134 33.9942Z" fill="white"/>
<path d="M58.8048 29.5134C58.8048 28.0932 58.8048 26.6712 58.8048 25.251C58.8048 25.035 58.848 25.0026 59.0622 25.0278C59.1432 25.0368 59.1738 25.0746 59.1846 25.1538C59.2116 25.3518 59.2098 25.5516 59.2134 25.7496C59.262 28.0932 59.2512 30.4369 59.235 32.7805C59.2332 33.1009 59.2206 33.4213 59.2116 33.7417C59.2062 33.9613 59.19 33.9631 58.9884 33.9757C58.7958 33.9883 58.8048 33.8713 58.8048 33.7435C58.8066 32.3323 58.8048 30.9229 58.8048 29.5134Z" fill="white"/>
<path d="M59.5352 29.4865C59.5352 28.1887 59.5352 26.889 59.537 25.5894C59.537 25.4634 59.5514 25.3356 59.564 25.2096C59.5748 25.0908 59.6432 25.0332 59.7638 25.035C59.888 25.0368 59.9096 25.1106 59.9168 25.2204C59.9618 25.8162 59.9402 26.4138 59.9456 27.0096C59.9564 28.2967 59.9816 29.5837 59.9636 30.8707C59.951 31.7995 59.9618 32.7264 59.9366 33.6552C59.9348 33.711 59.9276 33.7651 59.924 33.8209C59.9168 33.9127 59.8934 33.9793 59.7764 33.9721C59.6648 33.9649 59.5784 33.9361 59.564 33.8119C59.5496 33.6805 59.537 33.5473 59.537 33.4159C59.5352 32.1055 59.5352 30.7969 59.5352 29.4865Z" fill="white"/>
<path d="M58.4418 29.5067C58.4418 30.9161 58.4418 32.3255 58.4418 33.7349C58.4418 33.9401 58.4094 33.9725 58.2366 33.9725C58.1286 33.9725 58.0692 33.9239 58.053 33.8213C58.0422 33.7457 58.035 33.6683 58.035 33.5909C58.0332 30.8657 58.0332 28.1422 58.0332 25.417C58.0332 25.3504 58.0368 25.2838 58.044 25.219C58.062 25.0858 58.1448 25.0318 58.2744 25.0372C58.4166 25.0408 58.44 25.1254 58.44 25.2478C58.4418 26.6662 58.4418 28.0864 58.4418 29.5067Z" fill="white"/>
<path d="M67.719 33.9749C67.444 33.9785 67.446 33.9785 67.336 33.7013C66.328 31.1291 65.32 28.5551 64.31 25.9828C64.279 25.9072 64.281 25.7722 64.184 25.7776C64.094 25.783 64.06 25.9072 64.026 25.9936C63.6404 26.971 63.2534 27.9467 62.8717 28.9241C62.6539 29.4839 62.4739 29.8259 62.2597 30.3857C62.2399 30.4379 62.1913 30.4703 62.1355 30.4703H61.9303C61.8367 30.4703 61.7719 30.3767 61.8061 30.2885C62.4829 28.5605 63.1238 27.0502 63.7988 25.3204C63.8546 25.1782 63.914 25.0432 64.08 25H64.213C64.386 24.9982 64.447 25.1098 64.504 25.2556C65.615 28.0961 66.731 30.9365 67.845 33.7751C67.921 33.9659 67.915 33.9713 67.719 33.9749Z" fill="white"/>
<path d="M66.7378 25.0012C66.9248 25.048 66.9868 25.2028 67.0478 25.3594C67.5858 26.7364 68.1328 28.1116 68.6638 29.4923C69.1768 30.8261 69.7068 32.1545 70.2338 33.4829C70.2828 33.6053 70.3148 33.7349 70.3548 33.8609C70.3798 33.9743 70.3368 34.0139 70.2208 33.9959C70.1568 33.9851 70.0878 33.9941 70.0228 33.9941C69.9208 33.9329 69.8868 33.8267 69.8428 33.7241C69.0618 31.8287 68.3558 29.9045 67.5948 28.0018C67.2238 27.073 66.8678 26.1388 66.5008 25.21C66.4268 25.021 66.5958 25.0552 66.6698 25.0012C66.6928 25.0012 66.7148 25.0012 66.7378 25.0012Z" fill="white"/>
<path d="M66.472 31.9782C66.465 32.079 66.425 32.1366 66.314 32.1492C65.988 32.1888 65.662 32.1636 65.338 32.169C65.253 32.1708 64.739 32.1708 64.091 32.169C63.9394 32.169 63.781 32.169 63.619 32.169C63.5056 32.169 63.3904 32.169 63.2752 32.169C63.1132 32.169 62.9512 32.169 62.791 32.1672C62.7658 32.1672 62.7172 32.1672 62.6614 32.1672C62.5264 32.1672 62.4058 32.2482 62.3536 32.3724C62.3356 32.4156 62.3212 32.4498 62.3176 32.4624C62.2636 32.601 62.2096 32.7378 62.1574 32.8764C62.0512 33.1518 61.9468 33.429 61.8424 33.7062C61.801 33.8178 61.747 33.9168 61.657 33.9961H61.4914C61.27 33.9204 61.27 33.9204 61.3564 33.7026C61.4644 33.4272 61.5724 33.1518 61.6786 32.8782C61.7326 32.7396 61.7866 32.6028 61.8406 32.4642C61.8802 32.3652 61.918 32.2662 61.9558 32.1672C61.9936 32.07 62.0116 32.0304 62.0476 31.9332C62.1142 31.7532 62.2852 31.728 62.4436 31.728H63.4444C63.5614 31.728 63.6766 31.728 63.7882 31.728H64.26C64.865 31.728 65.336 31.728 65.424 31.728C65.694 31.728 65.966 31.7244 66.236 31.7298C66.414 31.7334 66.485 31.8162 66.472 31.9782Z" fill="white"/>
<path d="M64.379 27.223C63.9364 28.3498 63.5278 29.2588 63.085 30.3857C63.0652 30.4361 63.0166 30.4703 62.9608 30.4703H62.7682C62.6746 30.4703 62.6098 30.3767 62.644 30.2885C63.1336 29.0374 63.589 28.006 64.08 26.755C64.109 26.683 64.107 26.5606 64.201 26.557C64.293 26.5534 64.332 26.665 64.374 26.7406C64.46 26.899 64.442 27.0628 64.379 27.223Z" fill="white"/>
<path d="M64.806 28.2771C64.524 28.9918 64.275 29.4868 63.9943 30.2014C63.9691 30.2626 63.9457 30.3256 63.9205 30.3886C63.9007 30.439 63.8521 30.4732 63.7963 30.4732H63.5983C63.5047 30.4732 63.4399 30.3796 63.4741 30.2914C63.8287 29.3842 64.147 28.6948 64.504 27.7875C64.525 27.7317 64.533 27.6525 64.596 27.6381C64.668 27.6237 64.709 27.6957 64.75 27.7461C64.887 27.9099 64.88 28.0899 64.806 28.2771Z" fill="white"/>
<path d="M63.561 33.024C63.6546 33.024 63.7194 33.1176 63.6852 33.204C63.6186 33.3732 63.5538 33.5424 63.4872 33.7116C63.4476 33.816 63.399 33.9132 63.318 33.9924H63.1524C62.9417 33.9042 62.9399 33.9042 63.0263 33.6864C63.1019 33.4938 63.1776 33.3012 63.2532 33.1068C63.273 33.0564 63.3216 33.0222 63.3774 33.0222L63.561 33.024Z" fill="white"/>
<path d="M65.201 29.3801C65.037 29.7887 64.911 29.9777 64.747 30.3863C64.727 30.4367 64.679 30.4691 64.625 30.4691H64.43C64.337 30.4691 64.272 30.3755 64.306 30.2873C64.522 29.7365 64.702 29.4053 64.918 28.8545C64.94 28.7968 64.938 28.7032 65.021 28.7014C65.089 28.6996 65.127 28.7734 65.165 28.8275C65.291 29.0039 65.276 29.1893 65.201 29.3801Z" fill="white"/>
<path d="M68.4429 33.9752C68.3239 34.0022 68.2559 33.9392 68.2049 33.8096C67.0909 30.9584 65.9729 28.1072 64.8569 25.2577C64.8319 25.1947 64.7619 25.1191 64.8749 25.0597C64.9959 24.9985 65.1899 25.0165 65.2569 25.1083C65.2979 25.1659 65.3269 25.2325 65.3539 25.2991C65.9729 26.8363 66.5739 28.3826 67.1739 29.927C67.6289 31.1024 68.0969 32.2724 68.5579 33.4442C68.5939 33.536 68.6319 33.6296 68.6569 33.725C68.7149 33.9446 68.6879 33.9752 68.4429 33.9752Z" fill="white"/>
<path d="M69.2852 33.9722C69.1632 33.9992 69.0892 33.938 69.0352 33.8012C67.9242 30.9554 66.8082 28.1095 65.6942 25.2637C65.6712 25.2025 65.6092 25.1359 65.7012 25.0747C65.8132 25.0027 66.0072 25.0099 66.0882 25.0963C66.1492 25.1629 66.1782 25.2475 66.2112 25.3303C66.6322 26.4175 67.0372 27.5119 67.4742 28.5919C68.1392 30.23 68.7422 31.895 69.4242 33.5258C69.4542 33.596 69.4812 33.6698 69.4962 33.7454C69.5392 33.956 69.5232 33.9722 69.2852 33.9722Z" fill="white"/>
<path d="M66.671 32.8737C66.263 32.8773 65.854 32.8755 65.446 32.8755C65.291 32.8755 64.618 32.8755 63.8166 32.8755H63.1614C63.066 32.8755 62.9796 32.9349 62.9454 33.0231C62.8518 33.2625 62.76 33.5001 62.6664 33.7395C62.6286 33.8385 62.5836 33.9321 62.49 33.9933H62.3568C62.3244 33.9825 62.2956 33.9699 62.2632 33.9627C62.1372 33.9375 62.1228 33.8709 62.1678 33.7593C62.2866 33.4641 62.4018 33.1707 62.517 32.8737C62.5512 32.7855 62.5872 32.6955 62.6214 32.6073C62.6556 32.5173 62.742 32.4597 62.8374 32.4597H63.507C63.6636 32.4597 63.822 32.4597 63.9786 32.4597C65.098 32.4597 66.142 32.4597 66.448 32.4615C66.639 32.4615 66.779 32.5965 66.805 32.7873C66.819 32.9115 66.724 32.8737 66.671 32.8737Z" fill="white"/>
<path d="M65.997 31.3517C65.81 31.3535 65.623 31.3517 65.434 31.3517H62.0985C62.0031 31.3517 61.9167 31.4111 61.8825 31.5011C61.8537 31.5767 61.8249 31.6523 61.7943 31.7279C61.7385 31.8737 61.6827 32.0195 61.6251 32.1635C61.5873 32.2625 61.5477 32.3615 61.5099 32.4605C61.4559 32.5991 61.4019 32.7377 61.3479 32.8745C61.2381 33.1553 61.1247 33.4343 61.0131 33.7133C60.9663 33.8285 60.9159 33.9365 60.7953 33.9923H60.6621C60.4335 33.9257 60.4335 33.9257 60.5127 33.7223C60.6243 33.4397 60.7341 33.1571 60.8457 32.8745C60.8997 32.7359 60.9537 32.5991 61.0077 32.4605C61.0473 32.3615 61.0869 32.2607 61.1247 32.1599C61.1805 32.0159 61.2381 31.8719 61.2939 31.7279C61.3425 31.6019 61.3929 31.4759 61.4415 31.3517C61.4775 31.2617 61.5117 31.1717 61.5477 31.0817C61.5819 30.9935 61.6683 30.9341 61.7637 30.9341C61.8645 30.9341 61.9779 30.9341 62.1003 30.9341C62.2083 30.9341 62.3217 30.9341 62.4405 30.9341C62.5917 30.9341 62.7537 30.9341 62.9193 30.9341C63.0363 30.9341 63.1533 30.9341 63.2739 30.9341C63.4341 30.9341 63.5961 30.9341 63.7581 30.9341H64.104C64.268 30.9341 64.428 30.9341 64.581 30.9341C65.247 30.9341 65.778 30.9341 65.888 30.9359C66.01 30.9377 66.116 30.9773 66.165 31.1051C66.23 31.2743 66.179 31.3499 65.997 31.3517Z" fill="white"/>
<path d="M25.15 30.0952C25.6126 30.0952 26.0086 29.9332 26.3344 29.6092C26.6602 29.2834 26.824 28.8532 26.824 28.3168C26.824 27.8812 26.6566 27.4942 26.3182 27.154C25.9816 26.8138 25.591 26.6428 25.1482 26.6428H22.0162C21.739 26.6428 21.5158 26.866 21.5158 27.1432V28.2844C21.5158 28.3888 21.6004 28.4716 21.703 28.4716H21.7066C21.811 28.4716 21.8938 28.387 21.8938 28.2844V27.2098C21.8938 27.1054 21.9784 27.0226 22.081 27.0226H25.1464C25.483 27.0226 25.7836 27.1558 26.0464 27.4204C26.3092 27.685 26.4406 27.9856 26.4406 28.3186C26.4406 28.765 26.3146 29.1106 26.0644 29.3536C25.8142 29.5984 25.5082 29.719 25.1464 29.719H21.2602C20.983 29.719 20.7598 29.9422 20.7598 30.2194V33.6593C20.7598 33.7637 20.8444 33.8465 20.947 33.8465H20.9506C21.055 33.8465 21.1378 33.7619 21.1378 33.6593V30.2842C21.1378 30.1798 21.2224 30.097 21.325 30.097H25.15V30.0952Z" fill="white"/>
<path d="M25.1499 29.3373C25.7601 29.3373 26.0661 28.9971 26.0661 28.3149C26.0661 28.0701 25.9761 27.8559 25.7943 27.6723C25.6143 27.4887 25.3983 27.3987 25.1499 27.3987H22.7756C22.4984 27.3987 22.2752 27.6219 22.2752 27.8991V28.2825C22.2752 28.3869 22.3598 28.4697 22.4624 28.4697H22.466C22.5704 28.4697 22.6532 28.3851 22.6532 28.2825V27.9657C22.6532 27.8613 22.7378 27.7785 22.8404 27.7785H25.1481C25.2993 27.7785 25.4271 27.8307 25.5297 27.9315C25.6323 28.0341 25.6845 28.1619 25.6845 28.3167C25.6845 28.5561 25.6377 28.7217 25.5423 28.8171C25.4469 28.9125 25.3155 28.9593 25.1481 28.9593H20.5004C20.225 28.9593 20 29.1825 20 29.4597V33.6574C20 33.7618 20.0846 33.8446 20.1872 33.8446H20.1908C20.2952 33.8446 20.378 33.76 20.378 33.6574V29.5245C20.378 29.4201 20.4626 29.3373 20.5652 29.3373H25.1499Z" fill="white"/>
<path d="M25.15 30.8515C25.582 30.8515 25.9834 30.7435 26.3524 30.5275C26.7232 30.3114 27.0202 30.0072 27.2452 29.6166C27.4703 29.2242 27.5819 28.7904 27.5819 28.3134C27.5819 27.8922 27.4703 27.4944 27.247 27.1182C27.0238 26.742 26.725 26.4414 26.3488 26.2182C25.9726 25.9932 25.573 25.8816 25.1482 25.8816H21.2602C20.983 25.8816 20.7598 26.1048 20.7598 26.382V28.281C20.7598 28.3854 20.8444 28.4682 20.947 28.4682H20.9506C21.055 28.4682 21.1378 28.3836 21.1378 28.281V26.4486C21.1378 26.3442 21.2224 26.2614 21.3268 26.2614H25.15C25.6936 26.2614 26.1724 26.4684 26.5846 26.8824C26.9968 27.2964 27.202 27.7734 27.202 28.3152C27.202 28.7328 27.1066 29.109 26.9158 29.442C26.725 29.775 26.473 30.0306 26.1634 30.2088C25.852 30.3852 25.5136 30.4753 25.15 30.4753H22.0162C21.739 30.4753 21.5158 30.6985 21.5158 30.9757V33.6559C21.5158 33.7603 21.6004 33.8431 21.703 33.8431H21.7066C21.811 33.8431 21.8938 33.7585 21.8938 33.6559V31.0387C21.8938 30.9343 21.9784 30.8515 22.081 30.8515H25.15Z" fill="white"/>
<path d="M27.9039 26.7405C27.6123 26.2491 27.2217 25.8567 26.7303 25.5633C26.2389 25.2698 25.7115 25.124 25.1499 25.124H20.5004C20.225 25.124 20 25.3472 20 25.6245V28.2813C20 28.3857 20.0846 28.4685 20.1872 28.4685H20.1908C20.2952 28.4685 20.378 28.3839 20.378 28.2813V25.6911C20.378 25.5867 20.4626 25.5039 20.5652 25.5039H25.1481C25.6431 25.5039 26.1075 25.6335 26.5413 25.8909C26.9751 26.1483 27.3207 26.4957 27.5763 26.9295C27.8337 27.3633 27.9615 27.8259 27.9615 28.3155C27.9615 28.7259 27.8859 29.1129 27.7347 29.4765C27.5835 29.8401 27.3819 30.1479 27.1263 30.4035C26.8707 30.6591 26.5719 30.8607 26.2281 31.0083C25.8843 31.1577 25.5243 31.2315 25.1481 31.2315H22.7756C22.4984 31.2315 22.2752 31.4547 22.2752 31.7319V33.6544C22.2752 33.7588 22.3598 33.8416 22.4624 33.8416H22.466C22.5704 33.8416 22.6532 33.757 22.6532 33.6544V31.7985C22.6532 31.6941 22.7378 31.6113 22.8404 31.6113H25.1481C25.5765 31.6113 25.9833 31.5357 26.3703 31.3827C26.7573 31.2297 27.0957 31.0155 27.3873 30.7383C27.6789 30.4611 27.9093 30.1137 28.0821 29.6925C28.2549 29.2731 28.3395 28.8141 28.3395 28.3155C28.3395 27.7575 28.1937 27.2319 27.9039 26.7405Z" fill="white"/>
</g>
<defs>
<filter id="filter0_d" x="-36" y="-32" width="384" height="276" filterUnits="userSpaceOnUse" color-interpolation-filters="sRGB">
<feFlood flood-opacity="0" result="BackgroundImageFix"/>
<feColorMatrix in="SourceAlpha" type="matrix" values="0 0 0 0 0 0 0 0 0 0 0 0 0 0 0 0 0 0 127 0" result="hardAlpha"/>
<feOffset dy="4"/>
<feGaussianBlur stdDeviation="18"/>
<feColorMatrix type="matrix" values="0 0 0 0 0 0 0 0 0 0 0 0 0 0 0 0 0 0 0.05 0"/>
<feBlend mode="normal" in2="BackgroundImageFix" result="effect1_dropShadow"/>
<feBlend mode="normal" in="SourceGraphic" in2="effect1_dropShadow" result="shape"/>
</filter>
</defs>
</svg>
