<svg width="46" height="46" viewBox="0 0 46 46" fill="none" xmlns="http://www.w3.org/2000/svg">
<path d="M38 0H8C3.58172 0 0 3.58172 0 8V38C0 42.4183 3.58172 46 8 46H38C42.4183 46 46 42.4183 46 38V8C46 3.58172 42.4183 0 38 0Z" fill="#EFF2F7"/>
<path d="M33 21V31C33 31.2652 32.8946 31.5196 32.7071 31.7071C32.5196 31.8946 32.2652 32 32 32H14C13.7348 32 13.4804 31.8946 13.2929 31.7071C13.1054 31.5196 13 31.2652 13 31V21H33ZM33 19H13V15C13 14.7348 13.1054 14.4804 13.2929 14.2929C13.4804 14.1054 13.7348 14 14 14H32C32.2652 14 32.5196 14.1054 32.7071 14.2929C32.8946 14.4804 33 14.7348 33 15V19ZM26 27V29H30V27H26Z" fill="#006156"/>
</svg>
