<svg width="61" height="61" viewBox="0 0 61 61" fill="none" xmlns="http://www.w3.org/2000/svg">
<g clip-path="url(#clip0)">
<path d="M57.1239 51.8929H16.9199C15.2629 51.8929 13.9199 50.5499 13.9199 48.8929C13.9199 47.2359 15.2629 45.8929 16.9199 45.8929H57.1229C58.7799 45.8929 60.1229 47.2359 60.1229 48.8929C60.1229 50.5499 58.7809 51.8929 57.1239 51.8929Z" fill="#006156"/>
<path d="M57.1239 33.062H16.9199C15.2629 33.062 13.9199 31.719 13.9199 30.062C13.9199 28.405 15.2629 27.062 16.9199 27.062H57.1229C58.7799 27.062 60.1229 28.405 60.1229 30.062C60.1239 31.719 58.7809 33.062 57.1239 33.062Z" fill="#006156"/>
<path d="M57.1239 14.231H16.9199C15.2629 14.231 13.9199 12.888 13.9199 11.231C13.9199 9.57396 15.2629 8.23096 16.9199 8.23096H57.1229C58.7799 8.23096 60.1229 9.57396 60.1229 11.231C60.1229 12.888 58.7809 14.231 57.1239 14.231Z" fill="#006156"/>
<path d="M4.029 15.492C6.25416 15.492 8.058 13.6881 8.058 11.463C8.058 9.2378 6.25416 7.43396 4.029 7.43396C1.80384 7.43396 0 9.2378 0 11.463C0 13.6881 1.80384 15.492 4.029 15.492Z" fill="#006156"/>
<path d="M4.029 34.091C6.25416 34.091 8.058 32.2871 8.058 30.062C8.058 27.8368 6.25416 26.033 4.029 26.033C1.80384 26.033 0 27.8368 0 30.062C0 32.2871 1.80384 34.091 4.029 34.091Z" fill="#006156"/>
<path d="M4.029 52.69C6.25416 52.69 8.058 50.8861 8.058 48.661C8.058 46.4358 6.25416 44.632 4.029 44.632C1.80384 44.632 0 46.4358 0 48.661C0 50.8861 1.80384 52.69 4.029 52.69Z" fill="#006156"/>
</g>
<defs>
<clipPath id="clip0">
<rect width="60.123" height="60.123" fill="white"/>
</clipPath>
</defs>
</svg>
